PathFileType	4	(X/Y/Z)	c:/Users/goper/Files/vsCode/490R/osim_files/A03/A03_Slow_04.trc
DataRate	CameraRate	NumFrames	NumMarkers	Units                	OrigDataRate	OrigDataStartFrame	OrigNumFrames
250.00	250.00	12	36	mm	250.0	997	2658
                Frame#	Time	LPSIS			LASIS			LTH1			LTH2			LTH3			LTH4			LLFE			LMFE			LSH1			LSH2			LSH3			LSH4			LLMAL			LMMAL			LCAL			LMTP5			LTOE			LMTP1			RPSIS			RASIS			RTH1			RTH2			RTH3			RTH4			RLFE			RMFE			RSH1			RSH2			RSH3			RSH4			RLMAL			RMMAL			RCAL			RMTP1			RTOE			RMTP5		
		X1	Y1	Z1	X2	Y2	Z2	X3	Y3	Z3	X4	Y4	Z4	X5	Y5	Z5	X6	Y6	Z6	X7	Y7	Z7	X8	Y8	Z8	X9	Y9	Z9	X10	Y10	Z10	X11	Y11	Z11	X12	Y12	Z12	X13	Y13	Z13	X14	Y14	Z14	X15	Y15	Z15	X16	Y16	Z16	X17	Y17	Z17	X18	Y18	Z18	X19	Y19	Z19	X20	Y20	Z20	X21	Y21	Z21	X22	Y22	Z22	X23	Y23	Z23	X24	Y24	Z24	X25	Y25	Z25	X26	Y26	Z26	X27	Y27	Z27	X28	Y28	Z28	X29	Y29	Z29	X30	Y30	Z30	X31	Y31	Z31	X32	Y32	Z32	X33	Y33	Z33	X34	Y34	Z34	X35	Y35	Z35	X36	Y36	Z36

997	3.98400	1511.13696	1075.31897	287.08624	0.00000	0.00000	0.00000	0.00000	0.00000	0.00000	1166.65198	623.74847	448.99896	1147.96765	687.72888	431.49380	1124.93298	647.72449	426.61072	1169.41260	571.35199	435.39023	1137.30762	576.88928	282.85284	0.00000	0.00000	0.00000	0.00000	0.00000	0.00000	0.00000	0.00000	0.00000	0.00000	0.00000	0.00000	1084.20056	117.39030	392.55408	0.00000	0.00000	0.00000	0.00000	0.00000	0.00000	924.91797	100.82298	412.68552	0.00000	0.00000	0.00000	0.00000	0.00000	0.00000	1511.54529	1087.40234	204.65591	0.00000	0.00000	0.00000	0.00000	0.00000	0.00000	0.00000	0.00000	0.00000	0.00000	0.00000	0.00000	0.00000	0.00000	0.00000	0.00000	0.00000	0.00000	0.00000	0.00000	0.00000	0.00000	0.00000	0.00000	0.00000	0.00000	0.00000	0.00000	0.00000	0.00000	0.00000	0.00000	0.00000	0.00000	0.00000	0.00000	0.00000	0.00000	0.00000	0.00000	0.00000	0.00000	1346.21973	51.37700	250.39665	1325.14819	74.33425	202.10408	0.00000	0.00000	0.00000
998	3.98800	1507.45288	1074.80676	287.74750	0.00000	0.00000	0.00000	0.00000	0.00000	0.00000	1163.60693	622.60095	448.46567	1139.24426	687.83069	430.68222	1123.49683	646.86945	426.94641	1166.63403	570.27209	434.66592	1134.36353	576.22028	282.17545	0.00000	0.00000	0.00000	0.00000	0.00000	0.00000	0.00000	0.00000	0.00000	0.00000	0.00000	0.00000	1072.65710	118.03764	392.46127	0.00000	0.00000	0.00000	0.00000	0.00000	0.00000	913.54633	104.63915	412.85641	0.00000	0.00000	0.00000	0.00000	0.00000	0.00000	1508.06055	1087.00623	205.31589	0.00000	0.00000	0.00000	0.00000	0.00000	0.00000	0.00000	0.00000	0.00000	0.00000	0.00000	0.00000	0.00000	0.00000	0.00000	0.00000	0.00000	0.00000	0.00000	0.00000	0.00000	0.00000	0.00000	0.00000	0.00000	0.00000	0.00000	0.00000	0.00000	0.00000	0.00000	0.00000	0.00000	0.00000	0.00000	0.00000	0.00000	0.00000	0.00000	0.00000	0.00000	0.00000	1346.21643	51.26279	250.39655	1325.24829	74.34029	202.13518	0.00000	0.00000	0.00000
999	3.99200	1503.73999	1074.24304	288.38257	0.00000	0.00000	0.00000	0.00000	0.00000	0.00000	1160.49988	621.34912	447.88541	1137.37500	686.38074	430.25812	1119.38672	645.77411	425.87949	1163.78467	569.20013	433.94583	1131.47021	575.59320	281.43558	0.00000	0.00000	0.00000	0.00000	0.00000	0.00000	0.00000	0.00000	0.00000	0.00000	0.00000	0.00000	1061.41882	118.81133	392.40549	0.00000	0.00000	0.00000	0.00000	0.00000	0.00000	901.65533	108.36167	412.93265	0.00000	0.00000	0.00000	0.00000	0.00000	0.00000	1504.93787	1086.83386	205.90320	0.00000	0.00000	0.00000	0.00000	0.00000	0.00000	0.00000	0.00000	0.00000	0.00000	0.00000	0.00000	0.00000	0.00000	0.00000	0.00000	0.00000	0.00000	0.00000	0.00000	0.00000	0.00000	0.00000	0.00000	0.00000	0.00000	0.00000	0.00000	0.00000	0.00000	0.00000	0.00000	0.00000	0.00000	0.00000	0.00000	0.00000	0.00000	0.00000	0.00000	0.00000	0.00000	1346.23657	51.26141	250.40230	1325.31299	74.30841	202.09592	0.00000	0.00000	0.00000
1000	3.99600	1499.98108	1073.70923	289.03812	0.00000	0.00000	0.00000	0.00000	0.00000	0.00000	1157.08960	619.83063	447.22522	1133.38403	685.63959	429.92444	1116.29810	644.57977	425.17065	1160.69519	567.98010	433.28638	1128.62915	574.87280	280.70505	0.00000	0.00000	0.00000	0.00000	0.00000	0.00000	0.00000	0.00000	0.00000	0.00000	0.00000	0.00000	1050.51196	119.63050	392.35867	0.00000	0.00000	0.00000	0.00000	0.00000	0.00000	890.96765	112.30830	413.14249	0.00000	0.00000	0.00000	0.00000	0.00000	0.00000	1501.41809	1086.38745	206.54822	0.00000	0.00000	0.00000	0.00000	0.00000	0.00000	0.00000	0.00000	0.00000	0.00000	0.00000	0.00000	0.00000	0.00000	0.00000	0.00000	0.00000	0.00000	0.00000	0.00000	0.00000	0.00000	0.00000	0.00000	0.00000	0.00000	0.00000	0.00000	0.00000	0.00000	0.00000	0.00000	0.00000	0.00000	0.00000	0.00000	0.00000	0.00000	0.00000	0.00000	0.00000	0.00000	1346.25879	51.26137	250.36017	1325.31311	74.29984	202.06493	0.00000	0.00000	0.00000
1001	4.00000	1495.24634	1072.52258	289.85364	0.00000	0.00000	0.00000	0.00000	0.00000	0.00000	1154.27869	618.76947	446.64163	1130.25586	684.42865	429.61475	1113.69226	643.56085	424.67636	1158.07434	567.30487	432.56113	1125.46338	573.85315	280.09677	0.00000	0.00000	0.00000	0.00000	0.00000	0.00000	0.00000	0.00000	0.00000	0.00000	0.00000	0.00000	1039.88672	120.54736	392.39145	0.00000	0.00000	0.00000	0.00000	0.00000	0.00000	879.87787	115.75471	413.09714	0.00000	0.00000	0.00000	0.00000	0.00000	0.00000	1497.77600	1085.89307	207.16991	0.00000	0.00000	0.00000	0.00000	0.00000	0.00000	0.00000	0.00000	0.00000	0.00000	0.00000	0.00000	0.00000	0.00000	0.00000	0.00000	0.00000	0.00000	0.00000	0.00000	0.00000	0.00000	0.00000	0.00000	0.00000	0.00000	0.00000	0.00000	0.00000	0.00000	0.00000	0.00000	0.00000	0.00000	0.00000	0.00000	0.00000	0.00000	0.00000	0.00000	0.00000	0.00000	1345.91357	51.10789	250.36092	1325.31628	74.25829	202.07126	0.00000	0.00000	0.00000
1002	4.00400	1491.49158	1071.92664	290.50903	0.00000	0.00000	0.00000	0.00000	0.00000	0.00000	1150.76477	617.14429	445.96347	1127.75110	683.43292	429.32825	1110.10364	642.06122	423.75906	1154.94666	566.28918	431.86929	1122.87122	573.33459	279.31549	0.00000	0.00000	0.00000	0.00000	0.00000	0.00000	0.00000	0.00000	0.00000	0.00000	0.00000	0.00000	1029.60217	121.44070	392.50864	0.00000	0.00000	0.00000	0.00000	0.00000	0.00000	870.11462	119.28181	413.23459	0.00000	0.00000	0.00000	0.00000	0.00000	0.00000	1494.15735	1085.34265	207.82144	0.00000	0.00000	0.00000	0.00000	0.00000	0.00000	0.00000	0.00000	0.00000	0.00000	0.00000	0.00000	0.00000	0.00000	0.00000	0.00000	0.00000	0.00000	0.00000	0.00000	0.00000	0.00000	0.00000	0.00000	0.00000	0.00000	0.00000	0.00000	0.00000	0.00000	0.00000	0.00000	0.00000	0.00000	0.00000	0.00000	0.00000	0.00000	0.00000	0.00000	0.00000	0.00000	1345.84363	50.93850	250.38344	1325.28894	74.20298	202.05109	0.00000	0.00000	0.00000
1003	4.00800	1487.71924	1071.30762	291.14041	0.00000	0.00000	0.00000	0.00000	0.00000	0.00000	1147.56372	615.79065	445.30545	1124.56677	682.02686	428.87143	1107.26648	640.55243	423.20990	1151.77026	565.14880	431.26898	1119.92505	572.51465	278.55734	0.00000	0.00000	0.00000	0.00000	0.00000	0.00000	0.00000	0.00000	0.00000	0.00000	0.00000	0.00000	1019.75995	122.38355	392.69241	0.00000	0.00000	0.00000	0.00000	0.00000	0.00000	860.03894	122.92801	413.35654	0.00000	0.00000	0.00000	0.00000	0.00000	0.00000	1490.50586	1084.79504	208.47632	0.00000	0.00000	0.00000	0.00000	0.00000	0.00000	0.00000	0.00000	0.00000	0.00000	0.00000	0.00000	0.00000	0.00000	0.00000	0.00000	0.00000	0.00000	0.00000	0.00000	0.00000	0.00000	0.00000	0.00000	0.00000	0.00000	0.00000	0.00000	0.00000	0.00000	0.00000	0.00000	0.00000	0.00000	0.00000	0.00000	0.00000	0.00000	0.00000	0.00000	0.00000	0.00000	1345.86804	50.89876	250.38898	1325.30835	74.13860	202.05339	0.00000	0.00000	0.00000
1004	4.01200	1483.93176	1070.62830	291.79922	0.00000	0.00000	0.00000	0.00000	0.00000	0.00000	1144.70886	614.71326	444.78165	1120.61072	680.48425	428.13742	1104.13843	639.56970	422.56021	1148.46875	564.25330	430.61426	1116.76453	571.44580	277.93985	0.00000	0.00000	0.00000	0.00000	0.00000	0.00000	0.00000	0.00000	0.00000	0.00000	0.00000	0.00000	1010.32855	123.33621	392.94824	0.00000	0.00000	0.00000	0.00000	0.00000	0.00000	850.27936	126.03649	413.33170	0.00000	0.00000	0.00000	0.00000	0.00000	0.00000	1486.59412	1083.94910	209.20395	0.00000	0.00000	0.00000	0.00000	0.00000	0.00000	0.00000	0.00000	0.00000	0.00000	0.00000	0.00000	0.00000	0.00000	0.00000	0.00000	0.00000	0.00000	0.00000	0.00000	0.00000	0.00000	0.00000	0.00000	0.00000	0.00000	0.00000	0.00000	0.00000	0.00000	0.00000	0.00000	0.00000	0.00000	0.00000	0.00000	0.00000	0.00000	0.00000	0.00000	0.00000	0.00000	1345.84888	50.83969	250.35651	1325.32129	74.05605	202.04781	0.00000	0.00000	0.00000
1005	4.01600	1480.12952	1070.02942	292.38397	0.00000	0.00000	0.00000	0.00000	0.00000	0.00000	1141.40491	613.34998	444.22748	1119.22766	678.20911	427.67471	1100.86621	638.21692	421.86267	1145.44031	563.57501	429.88654	1114.02893	570.79913	277.17615	0.00000	0.00000	0.00000	0.00000	0.00000	0.00000	0.00000	0.00000	0.00000	0.00000	0.00000	0.00000	1001.29059	124.28095	393.24347	0.00000	0.00000	0.00000	0.00000	0.00000	0.00000	841.27502	129.18240	413.45874	0.00000	0.00000	0.00000	0.00000	0.00000	0.00000	1482.92627	1083.33972	209.84480	0.00000	0.00000	0.00000	0.00000	0.00000	0.00000	0.00000	0.00000	0.00000	0.00000	0.00000	0.00000	0.00000	0.00000	0.00000	0.00000	0.00000	0.00000	0.00000	0.00000	0.00000	0.00000	0.00000	0.00000	0.00000	0.00000	0.00000	0.00000	0.00000	0.00000	0.00000	0.00000	0.00000	0.00000	0.00000	0.00000	0.00000	0.00000	0.00000	0.00000	0.00000	0.00000	1345.89038	50.82278	250.37532	1325.24939	73.89012	202.10475	0.00000	0.00000	0.00000
1006	4.02000	1476.31042	1069.36572	292.99905	0.00000	0.00000	0.00000	0.00000	0.00000	0.00000	1137.67383	611.73431	443.51385	1117.41479	677.20465	427.67151	1096.57898	636.43628	420.36996	1142.12683	562.76025	429.21863	1110.97083	569.97681	276.37143	0.00000	0.00000	0.00000	0.00000	0.00000	0.00000	0.00000	0.00000	0.00000	0.00000	0.00000	0.00000	992.98792	125.43758	393.80289	0.00000	0.00000	0.00000	0.00000	0.00000	0.00000	832.65845	132.14099	413.64740	0.00000	0.00000	0.00000	0.00000	0.00000	0.00000	1479.22717	1082.76709	210.46315	0.00000	0.00000	0.00000	0.00000	0.00000	0.00000	0.00000	0.00000	0.00000	0.00000	0.00000	0.00000	0.00000	0.00000	0.00000	0.00000	0.00000	0.00000	0.00000	0.00000	0.00000	0.00000	0.00000	0.00000	0.00000	0.00000	0.00000	0.00000	0.00000	0.00000	0.00000	0.00000	0.00000	0.00000	0.00000	0.00000	0.00000	0.00000	0.00000	0.00000	0.00000	0.00000	1345.87256	50.75782	250.35410	1325.27417	73.82069	202.06911	0.00000	0.00000	0.00000
1007	4.02400	1472.48535	1068.70557	293.59915	0.00000	0.00000	0.00000	0.00000	0.00000	0.00000	1134.64124	610.73883	443.01093	1113.70178	675.95349	427.06192	1093.29309	635.24109	419.79831	1138.62939	561.78894	428.57593	1107.67725	568.78931	275.72034	0.00000	0.00000	0.00000	0.00000	0.00000	0.00000	0.00000	0.00000	0.00000	0.00000	0.00000	0.00000	984.33997	125.99416	394.18219	0.00000	0.00000	0.00000	0.00000	0.00000	0.00000	824.48859	134.89224	413.87558	0.00000	0.00000	0.00000	0.00000	0.00000	0.00000	1475.49890	1082.14563	211.11703	0.00000	0.00000	0.00000	0.00000	0.00000	0.00000	0.00000	0.00000	0.00000	0.00000	0.00000	0.00000	0.00000	0.00000	0.00000	0.00000	0.00000	0.00000	0.00000	0.00000	0.00000	0.00000	0.00000	0.00000	0.00000	0.00000	0.00000	0.00000	0.00000	0.00000	0.00000	0.00000	0.00000	0.00000	0.00000	0.00000	0.00000	0.00000	0.00000	0.00000	0.00000	0.00000	1345.85461	50.72013	250.33134	1325.26428	73.76554	202.06175	0.00000	0.00000	0.00000
1008	4.02800	1468.64478	1068.04614	294.19016	0.00000	0.00000	0.00000	0.00000	0.00000	0.00000	1130.78503	609.17450	442.27814	1110.00720	674.73175	426.40012	1090.88940	634.40039	419.66483	1135.23047	561.21307	427.83170	1104.64746	567.81897	274.91611	0.00000	0.00000	0.00000	0.00000	0.00000	0.00000	0.00000	0.00000	0.00000	0.00000	0.00000	0.00000	976.53912	126.79222	394.74048	0.00000	0.00000	0.00000	0.00000	0.00000	0.00000	816.70673	137.37355	414.11179	0.00000	0.00000	0.00000	0.00000	0.00000	0.00000	1471.76416	1081.58618	211.77258	0.00000	0.00000	0.00000	0.00000	0.00000	0.00000	0.00000	0.00000	0.00000	0.00000	0.00000	0.00000	0.00000	0.00000	0.00000	0.00000	0.00000	0.00000	0.00000	0.00000	0.00000	0.00000	0.00000	0.00000	0.00000	0.00000	0.00000	0.00000	0.00000	0.00000	0.00000	0.00000	0.00000	0.00000	0.00000	0.00000	0.00000	0.00000	0.00000	0.00000	0.00000	0.00000	1345.87366	50.68851	250.29683	1325.36365	73.77726	201.95348	0.00000	0.00000	0.00000
